<!DOCTYPE svg PUBLIC "-//W3C//DTD SVG 20010904//EN" "http://www.w3.org/TR/2001/REC-SVG-20010904/DTD/svg10.dtd">
<svg version="1.0" xmlns="http://www.w3.org/2000/svg" width="689px" height="173px" viewBox="0 0 6890 1730" preserveAspectRatio="xMidYMid meet">
<g id="layer101" fill="#187aa6" stroke="none">
<path d="M0 865 l0 -865 3445 0 3445 0 0 865 0 865 -3445 0 -3445 0 0 -865z"/>
</g>
<g id="layer102" fill="#bcbc13" stroke="none">
<path d="M1 1355 l0 -375 270 0 269 0 0 -270 0 -270 -270 0 -270 0 0 -220 0 -220 3445 0 3445 0 0 865 0 865 -3445 0 -3445 -1 1 -374z"/>
</g>
<g id="layer103" fill="#a3a7ad" stroke="none">
<path d="M1 1355 l0 -375 270 0 269 0 0 -270 0 -270 -270 0 -270 0 0 -220 0 -220 3445 0 3445 0 0 865 0 865 -3445 0 -3445 -1 1 -374z m1127 -647 l-3 -273 -267 -2 c-148 -2 -268 0 -268 5 0 4 -1 127 -3 275 l-2 267 273 0 272 0 -2 -272z"/>
<path d="M197 834 c-11 -12 3 -24 29 -24 24 0 24 0 24 -105 l0 -105 -31 0 c-17 0 -28 -4 -24 -10 3 -5 40 -10 81 -10 43 0 74 4 74 10 0 6 -13 10 -30 10 l-30 0 0 105 0 105 31 0 c20 0 29 4 27 13 -5 13 -138 23 -151 11z"/>
</g>
<g id="layer104" fill="#e7e4b2" stroke="none">
<path d="M779 826 c-117 -79 -59 -256 83 -256 52 0 97 29 123 81 64 122 -91 253 -206 175z m153 -46 c27 -28 30 -36 25 -76 -9 -81 -74 -121 -144 -88 -70 34 -81 119 -22 168 44 38 101 36 141 -4z"/>
</g>
<g id="layer105" fill="#feffff" stroke="none">
<path d="M1 1443 l1 -288 19 84 c10 47 39 127 64 178 74 152 178 243 335 294 l55 18 -237 0 -238 1 1 -287z"/>
<path d="M710 1711 c170 -55 291 -173 360 -351 31 -83 60 -223 60 -296 l0 -44 -565 0 c-558 0 -565 0 -565 -20 0 -20 7 -20 275 -20 l275 0 0 -275 0 -275 -275 0 -275 0 0 -215 0 -215 261 0 262 0 -27 21 c-15 12 -32 32 -36 45 -9 23 -13 24 -125 24 -108 0 -115 1 -115 20 0 20 7 20 345 20 338 0 345 0 345 -20 0 -19 -7 -20 -115 -20 -67 0 -115 -4 -115 -10 0 -5 -14 -25 -31 -45 l-31 -35 3136 0 3136 0 -2 453 -3 452 -122 3 c-100 2 -123 5 -123 17 0 10 11 15 36 15 72 0 74 5 74 154 0 122 2 134 18 132 15 -3 18 -19 22 -142 l5 -139 45 0 45 0 3 393 2 392 -1817 -1 c-1000 0 -1806 -4 -1791 -9 38 -11 48 -19 42 -33 -3 -10 -22 -12 -65 -9 -55 4 -63 2 -90 -24 -98 -94 -17 -255 108 -213 26 8 38 8 46 -1 9 -9 7 -15 -8 -26 -15 -11 -38 -15 -87 -12 -55 3 -72 8 -93 28 -40 37 -55 73 -55 130 0 80 34 129 107 156 35 12 25 13 -127 14 l-164 0 44 -22 c25 -13 55 -39 68 -58 20 -30 23 -45 20 -104 -4 -65 -6 -70 -46 -107 -39 -36 -45 -39 -102 -39 -113 0 -160 47 -160 162 0 58 4 71 27 99 15 17 45 40 68 50 l40 19 -140 -1 c-124 0 -137 -1 -110 -13 42 -18 57 -40 57 -83 0 -41 -9 -50 -96 -106 -57 -37 -62 -45 -42 -72 16 -23 86 -26 110 -6 12 10 17 8 25 -8 15 -28 -11 -41 -82 -41 -69 0 -107 26 -107 74 0 37 30 69 98 107 72 39 67 99 -9 99 -22 0 -48 -6 -59 -12 -17 -11 -22 -10 -30 2 -12 19 4 38 44 49 19 6 -333 9 -914 10 -919 0 -943 -1 -890 -18z m688 -38 l14 -43 63 0 63 0 14 43 c11 31 21 43 38 45 20 3 22 1 16 -25 -6 -23 -77 -225 -101 -285 -4 -10 -18 -18 -31 -18 -13 0 -24 1 -24 3 0 1 -25 71 -55 156 -30 85 -55 158 -55 163 0 5 10 8 22 6 15 -2 25 -15 36 -45z m312 -85 l0 -131 83 129 c69 107 88 130 110 132 l27 3 0 -160 c0 -153 -1 -161 -20 -161 -18 0 -20 8 -22 123 l-3 122 -80 -120 c-66 -99 -85 -121 -107 -123 l-28 -3 0 160 c0 154 1 161 20 161 19 0 20 -7 20 -132z m518 105 c65 -49 89 -162 45 -221 -41 -55 -79 -72 -164 -72 l-79 0 0 161 0 162 85 -5 c65 -3 92 -9 113 -25z m1212 -128 c0 -131 -2 -157 -15 -162 -9 -3 -18 -4 -20 -2 -2 2 -5 75 -7 162 l-3 157 23 0 c22 0 22 -1 22 -155z m280 135 c0 -18 -7 -20 -70 -20 l-70 0 0 -55 0 -55 55 0 c42 0 55 -3 55 -15 0 -12 -13 -15 -55 -15 l-55 0 0 -54 0 -53 70 2 c63 2 70 0 70 -16 0 -17 -9 -19 -90 -19 l-90 0 0 160 0 160 90 0 c83 0 90 -1 90 -20z m170 -119 c0 -153 -2 -148 67 -146 30 1 43 -3 45 -13 2 -9 27 23 56 71 50 82 52 89 52 156 0 64 2 71 20 71 18 0 20 -7 20 -75 0 -74 1 -78 48 -148 68 -102 66 -97 40 -97 -17 0 -33 15 -62 60 -21 33 -42 60 -46 60 -4 0 -24 -27 -44 -60 l-37 -60 -148 0 c-81 0 -150 3 -154 6 -16 16 8 29 53 29 l50 0 0 143 c0 135 1 142 20 142 19 0 20 -7 20 -139z m-939 -351 c10 0 33 -13 51 -29 l33 -29 0 -128 c0 -111 -2 -129 -16 -132 -15 -3 -17 12 -20 117 -4 107 -6 123 -26 142 -30 31 -100 30 -125 -1 -15 -19 -18 -41 -18 -141 0 -112 -1 -119 -20 -119 -19 0 -20 7 -20 129 0 108 3 132 18 150 19 24 89 53 110 46 8 -3 22 -5 33 -5z m-1541 -160 c0 -153 -1 -160 -20 -160 -19 0 -20 7 -20 154 0 152 2 162 33 165 4 1 7 -71 7 -159z m150 33 l5 -122 80 124 c63 99 85 125 103 125 22 0 22 -1 22 -160 0 -153 -1 -160 -20 -160 -19 0 -20 7 -20 123 l0 122 -81 -122 c-73 -111 -84 -123 -110 -123 l-29 0 0 153 c0 85 3 157 7 161 4 4 14 5 23 4 12 -3 16 -26 20 -125z m465 102 c28 -27 33 -80 12 -110 -8 -10 -38 -32 -67 -49 -71 -42 -82 -61 -50 -87 19 -16 32 -19 60 -14 57 12 64 11 68 -7 2 -13 -8 -20 -39 -28 -78 -21 -149 13 -149 72 0 44 16 66 70 93 61 31 86 65 70 94 -12 24 -60 28 -106 11 -41 -16 -57 5 -24 30 39 30 124 27 155 -5z m215 -120 l5 -139 48 1 c40 1 47 -2 47 -18 0 -18 -9 -19 -125 -19 -101 0 -125 3 -125 14 0 10 18 17 53 23 l52 8 3 125 c2 136 6 154 25 148 8 -3 13 -45 17 -143z m198 -18 c2 -152 2 -157 -18 -157 -19 0 -20 6 -20 153 0 85 3 157 7 161 22 21 28 -11 31 -157z m202 18 l5 -139 48 1 c40 1 47 -2 47 -18 0 -18 -9 -19 -125 -19 -101 0 -125 3 -125 14 0 10 18 17 53 23 l52 8 3 125 c2 136 6 154 25 148 8 -3 13 -45 17 -143z m592 2 l3 -141 48 1 c40 1 47 -2 47 -18 0 -18 -9 -19 -125 -19 -115 0 -125 2 -125 18 0 15 9 19 46 21 26 0 50 4 55 7 5 3 9 65 9 137 0 125 1 133 20 134 18 2 20 -6 22 -140z m338 122 c0 -17 -7 -19 -70 -19 l-70 0 0 -55 0 -55 55 0 c41 0 55 -4 55 -14 0 -11 -15 -16 -52 -18 l-53 -3 0 -49 0 -48 65 -2 c51 -1 65 -4 65 -16 0 -12 -18 -16 -87 -18 l-88 -3 0 159 0 159 90 1 c83 1 90 -1 90 -19z m240 -53 l5 -69 50 -1 c39 -1 50 -5 53 -18 3 -15 -5 -18 -53 -18 l-56 0 3 -52 3 -51 63 1 c55 0 62 -2 62 -19 0 -17 -8 -19 -90 -19 l-90 0 0 161 0 160 23 -3 c20 -3 22 -10 27 -72z m420 52 c44 -31 70 -82 70 -141 0 -113 -97 -189 -203 -157 -112 33 -152 178 -74 267 38 43 58 52 123 52 37 1 60 -5 84 -21z m190 -54 c0 -85 20 -86 74 -3 34 53 79 89 93 75 3 -2 -14 -32 -36 -65 -23 -33 -41 -62 -41 -65 0 -2 14 -18 30 -34 39 -39 41 -92 5 -127 -21 -22 -33 -25 -95 -25 l-70 0 0 154 c0 114 3 155 13 159 22 8 27 -4 27 -69z m395 -84 c0 -153 0 -155 -22 -158 -23 -3 -23 -3 -23 151 0 84 3 157 7 161 4 4 14 5 23 4 13 -3 15 -26 15 -158z m145 31 l5 -123 83 127 c69 107 86 126 105 123 21 -3 22 -7 25 -138 3 -148 -1 -180 -23 -180 -12 0 -15 20 -15 113 0 63 -3 117 -6 120 -4 4 -42 -47 -85 -113 -66 -101 -82 -120 -104 -120 l-25 0 0 153 c0 85 3 157 7 161 20 20 28 -10 33 -123z m420 -17 l5 -139 30 -1 c60 -3 65 -4 65 -19 0 -13 -21 -15 -125 -15 -101 0 -125 3 -125 14 0 10 18 17 53 23 l52 8 3 125 c2 136 6 154 25 148 8 -3 13 -45 17 -144z m338 122 c3 -14 -7 -16 -66 -16 -38 0 -71 -2 -73 -4 -2 -2 -2 -27 -1 -55 l4 -51 54 0 c40 0 54 -4 54 -14 0 -11 -15 -16 -52 -18 l-53 -3 0 -50 0 -50 63 1 c54 1 62 -2 62 -18 0 -16 -9 -18 -85 -18 l-85 0 0 154 c0 177 -11 162 110 160 52 -1 66 -4 68 -18z m133 -116 c13 0 33 22 63 68 31 48 50 68 65 68 29 0 27 -8 -21 -78 -30 -45 -38 -63 -28 -66 59 -20 79 -104 35 -147 -21 -22 -33 -25 -100 -25 l-75 0 0 154 c0 139 2 155 18 158 15 3 17 -6 20 -64 3 -60 5 -68 23 -68z m259 2 l0 -127 86 133 c71 109 90 132 110 132 l24 0 0 -160 c0 -152 -1 -160 -20 -160 -18 0 -20 8 -22 122 l-3 123 -80 -123 c-70 -107 -83 -122 -107 -122 l-28 0 0 154 c0 150 5 175 33 159 4 -2 7 -61 7 -131z m505 116 c0 -9 -20 -14 -72 -16 l-73 -3 0 -54 0 -55 61 0 c52 0 60 -2 57 -17 -3 -14 -11 -17 -40 -15 -64 6 -78 -4 -78 -53 0 -50 7 -55 84 -52 48 2 56 0 56 -15 0 -16 -10 -18 -90 -18 l-90 0 0 154 c0 94 4 156 10 158 5 2 47 2 92 1 62 -1 83 -5 83 -15z m-5487 -500 l-3 -273 -267 -2 c-148 -2 -268 0 -268 5 0 4 -1 127 -3 275 l-2 267 273 0 272 0 -2 -272z m302 1 c0 -4 -6 -9 -14 -11 -12 -3 -13 -8 -1 -35 13 -31 17 -33 64 -33 46 0 50 2 60 31 14 40 14 39 -4 39 -8 0 -15 5 -15 11 0 11 84 8 96 -4 4 -4 1 -7 -7 -7 -9 0 -32 -48 -64 -130 -27 -71 -54 -128 -60 -127 -5 2 -33 59 -61 127 -28 68 -57 126 -63 128 -25 8 -9 19 29 19 22 0 40 -4 40 -8z m350 -14 c0 -24 -1 -25 -16 -11 -17 18 -24 19 -48 10 -23 -9 -23 -144 -1 -144 8 0 15 -4 15 -10 0 -5 -20 -10 -45 -10 -25 0 -45 5 -45 10 0 6 7 10 15 10 12 0 15 15 15 75 0 61 -3 75 -16 75 -8 0 -13 3 -11 8 3 4 35 8 71 10 65 3 66 2 66 -23z m170 3 c0 -21 -4 -22 -29 -6 -28 17 -51 3 -51 -32 0 -25 4 -30 25 -30 14 0 25 5 25 10 0 6 4 10 8 10 5 0 9 -13 10 -30 0 -16 -4 -30 -9 -30 -5 0 -9 5 -9 10 0 6 -11 10 -25 10 -21 0 -25 -5 -25 -30 0 -27 3 -30 30 -30 17 0 30 5 30 10 0 6 5 10 10 10 6 0 10 -12 10 -26 0 -20 -4 -25 -16 -20 -9 3 -41 6 -72 6 -50 1 -55 2 -39 14 23 18 26 156 2 156 -8 0 -15 4 -15 9 0 5 32 9 70 8 61 0 70 -3 70 -19z m90 12 c0 -5 -5 -10 -10 -10 -6 0 0 -14 12 -30 l22 -31 18 23 c10 13 15 31 12 40 -4 14 4 16 57 17 66 0 89 -6 69 -19 -7 -4 -10 -15 -7 -25 5 -12 17 -15 44 -13 33 3 38 6 38 28 0 21 5 25 33 27 17 1 32 -3 32 -8 0 -5 -4 -9 -9 -9 -4 0 -23 -38 -41 -85 -18 -47 -37 -88 -42 -91 -7 -5 -38 55 -76 149 -16 37 -35 34 -73 -14 l-32 -40 20 -27 c11 -15 29 -31 41 -37 33 -15 27 -25 -14 -25 -26 0 -35 4 -31 13 3 7 -3 23 -12 36 l-17 23 -17 -26 c-10 -14 -13 -26 -7 -26 5 0 10 -4 10 -10 0 -5 -20 -10 -45 -10 l-45 0 40 41 c22 23 40 46 40 51 0 6 -18 28 -40 50 -22 22 -40 42 -40 44 0 2 16 4 35 4 19 0 35 -4 35 -10z m425 0 c3 -5 -1 -10 -9 -10 -13 0 -16 -11 -16 -52 l1 -53 57 63 c31 34 60 62 65 62 4 0 7 -38 7 -85 0 -69 3 -85 15 -85 8 0 15 -4 15 -10 0 -5 -20 -10 -45 -10 -25 0 -45 5 -45 10 0 6 7 10 15 10 11 0 15 12 15 51 l0 51 -52 -61 c-40 -48 -57 -61 -80 -61 -15 0 -28 5 -28 10 0 6 6 10 14 10 19 0 26 22 26 80 0 30 -6 54 -15 64 -8 8 -15 17 -15 20 0 10 69 6 75 -4z m336 -26 c40 -38 39 -85 0 -125 -27 -26 -36 -29 -97 -29 -64 0 -66 1 -51 18 22 24 23 124 2 146 -25 25 -18 28 51 23 55 -5 72 -11 95 -33z m214 26 c11 -18 -5 -31 -26 -19 -32 17 -59 2 -59 -32 0 -24 4 -29 25 -29 14 0 25 5 25 10 0 6 5 10 10 10 6 0 10 -13 10 -30 0 -16 -4 -30 -10 -30 -5 0 -10 5 -10 10 0 6 -11 10 -25 10 -21 0 -25 -5 -25 -30 0 -26 4 -30 28 -30 15 0 33 5 40 12 9 9 12 6 12 -16 0 -22 -4 -27 -16 -22 -9 3 -41 7 -72 7 -31 1 -49 3 -39 6 14 4 17 17 17 84 0 65 -3 79 -16 79 -8 0 -13 3 -11 8 8 11 135 13 142 2z m135 -2 c0 -4 -7 -8 -15 -8 -10 0 -15 -10 -15 -30 0 -39 15 -38 42 4 13 20 34 37 48 39 36 7 36 2 1 -33 -35 -36 -37 -43 -16 -60 18 -15 20 -61 3 -78 -15 -15 -138 -16 -138 -2 0 6 7 10 15 10 12 0 15 15 15 75 0 60 -3 75 -15 75 -8 0 -15 5 -15 10 0 6 20 9 45 8 25 0 45 -5 45 -10z m326 -77 c15 -40 34 -75 41 -78 24 -9 13 -23 -18 -23 -23 0 -30 4 -26 15 7 16 -21 105 -33 105 -4 0 -15 -20 -25 -45 -13 -36 -14 -49 -5 -60 11 -13 5 -15 -36 -15 l-48 0 22 20 c12 12 22 25 22 29 0 23 62 143 69 135 5 -5 21 -42 37 -83z m225 60 c49 -49 38 -125 -22 -157 -40 -20 -82 -11 -114 28 -35 41 -33 87 4 127 40 42 90 43 132 2z m159 18 c0 -5 -7 -9 -15 -9 -11 0 -15 -12 -15 -52 l1 -53 57 63 c31 34 60 62 65 62 4 0 7 -38 7 -85 0 -69 3 -85 15 -85 8 0 15 -4 15 -10 0 -5 -20 -10 -45 -10 -25 0 -45 5 -45 10 0 6 7 10 15 10 11 0 15 12 15 48 l-1 47 -52 -58 c-39 -43 -59 -57 -79 -57 -16 0 -28 5 -28 10 0 6 6 10 14 10 19 0 26 22 26 80 0 30 -6 54 -15 64 -22 22 -19 25 25 24 22 0 40 -4 40 -9z m360 -1 c0 -4 -7 -8 -15 -8 -12 0 -15 -13 -15 -55 l0 -56 73 3 72 3 3 41 c2 28 -2 47 -12 57 -9 9 -16 17 -16 19 0 2 20 3 45 4 25 0 45 -3 45 -8 0 -4 -7 -8 -15 -8 -12 0 -15 -19 -15 -115 0 -96 3 -115 15 -115 8 0 15 -4 15 -10 0 -5 -20 -10 -45 -10 -44 0 -60 12 -30 24 10 4 15 20 15 51 l0 45 -75 0 -75 0 0 -50 c0 -38 4 -50 15 -50 8 0 15 -4 15 -10 0 -5 -22 -10 -50 -10 -27 0 -50 5 -50 10 0 6 7 10 15 10 12 0 15 19 15 115 0 96 -3 115 -15 115 -8 0 -15 4 -15 9 0 4 23 8 50 8 28 -1 50 -4 50 -9z m381 -7 c19 -15 24 -30 27 -85 3 -47 8 -66 18 -66 8 0 14 -4 14 -10 0 -5 -20 -10 -45 -10 -25 0 -45 5 -45 10 0 6 7 10 15 10 12 0 15 14 15 63 0 58 -2 65 -26 77 -48 26 -72 -10 -66 -96 3 -29 9 -44 18 -44 8 0 14 -4 14 -10 0 -5 -22 -10 -50 -10 -27 0 -50 5 -50 10 0 6 7 10 15 10 12 0 15 13 15 59 0 44 5 65 21 85 25 32 75 35 110 7z m169 8 c0 -5 -7 -9 -15 -9 -11 0 -15 -12 -15 -50 0 -27 3 -50 8 -50 4 0 18 25 31 55 13 30 26 55 30 55 3 -1 20 -31 38 -68 l31 -67 1 63 c1 51 -2 62 -16 62 -9 0 -13 3 -9 7 10 11 86 12 86 2 0 -5 -7 -9 -15 -9 -12 0 -15 -15 -15 -75 0 -60 3 -75 15 -75 8 0 15 -4 15 -10 0 -5 -15 -10 -32 -10 -29 0 -35 5 -51 44 -10 24 -24 52 -32 62 -13 18 -16 14 -41 -43 -26 -59 -29 -63 -61 -63 -18 0 -33 5 -33 10 0 6 7 10 15 10 12 0 15 15 15 75 0 61 -3 75 -16 75 -8 0 -13 4 -10 8 6 11 76 12 76 1z m365 -9 c19 -16 19 -54 0 -70 -11 -9 -13 -16 -5 -24 14 -14 13 -49 -2 -64 -7 -7 -39 -12 -77 -12 -57 1 -64 2 -48 14 23 18 26 156 2 156 -8 0 -15 4 -15 8 0 13 128 6 145 -8z m214 -15 c38 -44 40 -83 6 -123 -32 -39 -74 -48 -114 -28 -60 32 -71 108 -22 157 43 42 89 40 130 -6z m211 8 c0 -26 -15 -31 -24 -7 -3 9 -15 14 -28 12 -21 -3 -23 -9 -26 -75 -2 -60 0 -73 13 -73 8 0 15 -4 15 -10 0 -5 -20 -10 -45 -10 -25 0 -45 5 -45 10 0 6 7 10 15 10 12 0 15 15 15 75 0 60 -3 75 -15 75 -8 0 -15 4 -15 9 0 5 32 8 70 8 66 -1 70 -3 70 -24z m193 -13 c37 -41 36 -83 -2 -121 -27 -27 -35 -29 -102 -29 -69 0 -72 1 -51 16 18 12 22 25 22 69 0 63 -7 85 -27 85 -8 0 -12 4 -9 9 3 5 36 7 73 5 61 -3 71 -7 96 -34z m177 28 c0 -4 -7 -8 -15 -8 -12 0 -15 -15 -15 -75 0 -73 1 -75 25 -75 14 0 25 5 25 10 0 6 5 10 10 10 6 0 10 -10 10 -22 0 -22 -3 -23 -90 -23 -87 0 -90 1 -90 23 0 12 5 22 10 22 6 0 10 -5 10 -11 0 -6 12 -9 28 -7 25 3 27 7 30 52 4 63 -4 96 -24 96 -8 0 -13 4 -10 9 7 10 96 10 96 -1z m-5660 -438 l0 -110 -25 0 -25 0 0 110 0 110 25 0 25 0 0 -110z m110 0 l0 -110 -25 0 -25 0 0 110 0 110 25 0 25 0 0 -110z m110 0 c0 -102 -1 -110 -19 -110 -18 0 -20 9 -23 106 -2 58 -1 108 1 110 2 2 13 4 23 4 16 0 18 -10 18 -110z m200 0 l0 -110 -25 0 -25 0 0 110 0 110 25 0 25 0 0 -110z m110 0 l0 -110 -25 0 -25 0 0 110 0 110 25 0 25 0 0 -110z m110 0 l0 -110 -25 0 -25 0 0 110 0 110 25 0 25 0 0 -110z"/>
<path d="M1438 1584 c-4 -3 3 -32 14 -65 11 -33 22 -58 25 -56 10 11 42 111 37 118 -6 10 -67 12 -76 3z"/>
<path d="M2070 1562 c0 -82 4 -122 12 -124 6 -2 34 -1 61 2 54 7 91 38 103 86 9 37 -4 91 -30 121 -19 22 -33 27 -84 31 l-62 4 0 -120z"/>
<path d="M4077 1170 c-55 -43 -60 -140 -11 -191 66 -69 177 -29 185 67 4 55 -1 73 -32 109 -26 30 -37 35 -74 35 -27 0 -51 -7 -68 -20z"/>
<path d="M4424 1047 c-3 -8 -4 -34 -2 -58 l3 -44 40 2 c46 2 69 26 60 63 -8 33 -14 37 -57 45 -29 6 -39 4 -44 -8z"/>
<path d="M5843 1053 c-14 -5 -19 -102 -5 -104 78 -10 102 0 102 44 0 19 -6 39 -12 45 -16 12 -69 22 -85 15z"/>
<path d="M819 843 c-57 -9 -116 -104 -99 -161 21 -76 67 -112 141 -112 88 0 152 88 127 178 -13 48 -25 61 -73 83 -40 19 -47 19 -96 12z m112 -62 c55 -55 33 -151 -39 -171 -92 -25 -161 46 -132 135 15 46 44 65 98 65 35 0 49 -6 73 -29z"/>
<path d="M1446 588 c3 -12 12 -35 19 -52 l13 -30 16 38 c24 57 21 66 -20 66 -32 0 -35 -2 -28 -22z"/>
<path d="M2230 633 c1 -5 6 -18 13 -31 l13 -23 12 26 c16 35 16 35 -13 35 -14 0 -25 -3 -25 -7z"/>
<path d="M2707 693 c-4 -3 -7 -37 -7 -75 l0 -68 29 0 c54 0 84 87 44 122 -22 19 -57 31 -66 21z"/>
<path d="M3126 612 c-3 -3 -6 -18 -6 -34 0 -23 4 -28 24 -28 25 0 39 20 30 44 -6 15 -39 28 -48 18z"/>
<path d="M3600 680 c-26 -26 -27 -91 -2 -112 31 -27 39 -28 66 -7 21 16 26 29 26 63 0 68 -48 98 -90 56z"/>
<path d="M5057 693 c-4 -3 -7 -19 -7 -35 0 -23 4 -28 25 -28 26 0 48 29 37 47 -9 14 -47 25 -55 16z"/>
<path d="M5050 580 c0 -25 4 -30 24 -30 13 0 26 6 29 13 7 20 -12 47 -33 47 -16 0 -20 -7 -20 -30z"/>
<path d="M5245 680 c-20 -22 -24 -92 -6 -114 22 -26 52 -26 77 -1 30 30 31 73 3 109 -24 31 -49 33 -74 6z"/>
<path d="M5657 693 c-4 -3 -7 -37 -7 -75 l0 -68 29 0 c54 0 81 75 44 118 -20 22 -56 36 -66 25z"/>
<path d="M2846 1679 c-38 -11 -63 -35 -77 -76 -33 -102 62 -204 148 -159 77 39 93 142 32 204 -33 33 -61 42 -103 31z"/>
<path d="M390 1620 c0 -19 7 -20 175 -20 168 0 175 1 175 20 0 19 -7 20 -175 20 -168 0 -175 -1 -175 -20z"/>
<path d="M390 1535 c0 -13 26 -15 175 -15 149 0 175 2 175 15 0 13 -26 15 -175 15 -149 0 -175 -2 -175 -15z"/>
<path d="M390 1450 c0 -19 7 -20 175 -20 168 0 175 1 175 20 0 19 -7 20 -175 20 -168 0 -175 -1 -175 -20z"/>
<path d="M392 1364 c2 -8 6 -15 11 -15 4 1 81 1 172 1 140 0 165 2 165 15 0 13 -26 15 -176 15 -153 0 -175 -2 -172 -16z"/>
<path d="M390 1280 c0 -19 7 -20 175 -20 168 0 175 1 175 20 0 19 -7 20 -175 20 -168 0 -175 -1 -175 -20z"/>
<path d="M390 1190 c0 -19 7 -20 175 -20 168 0 175 1 175 20 0 19 -7 20 -175 20 -168 0 -175 -1 -175 -20z"/>
<path d="M392 1104 c2 -8 6 -15 11 -15 4 1 81 1 172 1 140 0 165 2 165 15 0 13 -26 15 -176 15 -153 0 -175 -2 -172 -16z"/>
<path d="M225 821 c17 -3 29 -10 28 -14 -2 -4 -3 -52 -3 -107 l0 -100 -25 0 c-14 0 -25 -4 -25 -10 0 -6 28 -10 64 -10 36 0 68 5 71 10 4 6 -5 10 -19 10 l-26 0 0 109 0 110 28 4 c15 2 -7 4 -48 4 -46 1 -63 -2 -45 -6z"/>
</g>


</svg>