<?xml version="1.0" encoding="UTF-8" standalone="no"?>
<!-- Created with Inkscape (http://www.inkscape.org/) -->

<svg
   xmlns:dc="http://purl.org/dc/elements/1.1/"
   xmlns:cc="http://creativecommons.org/ns#"
   xmlns:rdf="http://www.w3.org/1999/02/22-rdf-syntax-ns#"
   xmlns:svg="http://www.w3.org/2000/svg"
   xmlns="http://www.w3.org/2000/svg"
   xmlns:sodipodi="http://sodipodi.sourceforge.net/DTD/sodipodi-0.dtd"
   xmlns:inkscape="http://www.inkscape.org/namespaces/inkscape"
   id="svg3559"
   version="1.1"
   inkscape:version="0.91 r13725"
   xml:space="preserve"
   width="1450"
   height="200"
   viewBox="0 0 1450 200"
   sodipodi:docname="BI logo full.svg"><metadata
     id="metadata3565"><rdf:RDF><cc:Work
         rdf:about=""><dc:format>image/svg+xml</dc:format><dc:type
           rdf:resource="http://purl.org/dc/dcmitype/StillImage" /><dc:title></dc:title></cc:Work></rdf:RDF></metadata><defs
     id="defs3563"><clipPath
       clipPathUnits="userSpaceOnUse"
       id="clipPath3579"><path
         d="m 0,38.268 264.733,0 L 264.733,0 0,0 0,38.268 Z"
         id="path3581"
         inkscape:connector-curvature="0" /></clipPath></defs><sodipodi:namedview
     pagecolor="#ffffff"
     bordercolor="#666666"
     borderopacity="1"
     objecttolerance="10"
     gridtolerance="10"
     guidetolerance="10"
     inkscape:pageopacity="0"
     inkscape:pageshadow="2"
     inkscape:window-width="1366"
     inkscape:window-height="744"
     id="namedview3561"
     showgrid="false"
     fit-margin-top="0"
     fit-margin-left="0"
     fit-margin-right="0"
     fit-margin-bottom="0"
     inkscape:zoom="0.32484084"
     inkscape:cx="602.3582"
     inkscape:cy="-197.02339"
     inkscape:window-x="0"
     inkscape:window-y="24"
     inkscape:window-maximized="1"
     inkscape:current-layer="g3567" /><g
     id="g3567"
     inkscape:groupmode="layer"
     inkscape:label="BI-logo-cmyk"
     transform="matrix(1.25,0,0,-1.25,526.32875,123.9175)"><path
       d="m -421.063,-60.866 160,0 0,160 -160,0 0,-160 z"
       style="fill:#003d6a;fill-opacity:1;fill-rule:nonzero;stroke:none"
       id="path3569"
       inkscape:connector-curvature="0" /><g
       id="g3571"
       transform="matrix(4.181039,0,0,4.181039,-292.53284,42.7414)"><path
         d="m 0,0 0,3.763 -7.527,0 0,-3.763 1.582,0 0,-11.292 -1.582,0 0,-3.765 7.527,0 0,3.765 -1.581,0 L -1.581,0 0,0 Z"
         style="fill:#ffffff;fill-opacity:1;fill-rule:nonzero;stroke:none"
         id="path3573"
         inkscape:connector-curvature="0" /></g><g
       id="g3575"
       transform="matrix(4.181039,0,0,4.181039,-421.063,-60.866)"><g
         id="g3577"
         clip-path="url(#clipPath3579)"><path
           d="m 17.236,21.015 -3.764,0 0,3.764 3.764,0 0,-3.764 z m 0,-7.527 -3.764,0 0,3.763 3.764,0 0,-3.763 z m 2.339,5.963 c 1.477,0.834 2.477,2.417 2.477,4.234 0,2.682 -2.176,4.858 -4.858,4.858 l -9.667,0 0,-3.764 1.58,0 0,-11.291 -1.58,0 0,-3.765 9.667,0 c 3.194,0 5.173,2.283 5.173,5.138 0,1.998 -1.135,3.73 -2.792,4.59"
           style="fill:#ffffff;fill-opacity:1;fill-rule:nonzero;stroke:none"
           id="path3583"
           inkscape:connector-curvature="0" /><g
           id="g3585"
           transform="translate(49.5528,26.6612)"><path
             d="m 0,0 1.003,0 0,-6.829 9.186,0 0,6.829 1.002,0 0,-15.056 -1.002,0 0,7.288 -9.186,0 0,-7.288 -1.003,0 L 0,0 Z"
             style="fill:#003d6a;fill-opacity:1;fill-rule:nonzero;stroke:none"
             id="path3587"
             inkscape:connector-curvature="0" /></g><g
           id="g3589"
           transform="translate(63.564,11.6055)"><path
             d="m 0,0 1.002,0 1.733,4.135 8.206,0 1.733,-4.135 0.982,0 -6.223,15.056 -1.19,0 L 0,0 Z m 10.585,5.032 -7.474,0 3.737,9 3.737,-9 z"
             style="fill:#003d6a;fill-opacity:1;fill-rule:nonzero;stroke:none"
             id="path3591"
             inkscape:connector-curvature="0" /></g><g
           id="g3593"
           transform="translate(79.416,26.6612)"><path
             d="m 0,0 1.42,0 8.769,-13.698 0,13.698 1.023,0 0,-15.056 -1.273,0 -8.937,13.928 0,-13.928 -1.002,0 L 0,0 Z"
             style="fill:#003d6a;fill-opacity:1;fill-rule:nonzero;stroke:none"
             id="path3595"
             inkscape:connector-curvature="0" /></g><g
           id="g3597"
           transform="translate(94.7422,11.6055)"><path
             d="m 0,0 4.53,0 c 2.464,0 4.052,0.544 5.325,1.775 1.336,1.316 2.025,3.154 2.025,5.471 0,4.76 -2.63,7.81 -6.702,7.81 L 0,15.056 0,0 Z m 4.74,14.157 c 1.878,0 3.299,-0.522 4.321,-1.566 1.128,-1.126 1.776,-3.048 1.776,-5.24 0,-2.026 -0.585,-3.738 -1.671,-4.866 C 8.102,1.399 6.786,0.94 4.656,0.94 l -3.633,0 0,13.217 3.717,0 z"
             style="fill:#003d6a;fill-opacity:1;fill-rule:nonzero;stroke:none"
             id="path3599"
             inkscape:connector-curvature="0" /></g><g
           id="g3601"
           transform="translate(109.7754,26.6612)"><path
             d="m 0,0 8.916,0 -0.438,-0.941 -7.476,0 0,-5.909 6.599,0 0,-0.939 -6.599,0 0,-6.326 7.684,0 0.355,-0.941 -9.041,0 L 0,0 Z"
             style="fill:#003d6a;fill-opacity:1;fill-rule:nonzero;stroke:none"
             id="path3603"
             inkscape:connector-curvature="0" /></g><g
           id="g3605"
           transform="translate(121.9903,26.6612)"><path
             d="m 0,0 1.023,0 0,-14.156 7.058,0 0,-0.9 -8.081,0 L 0,0 Z"
             style="fill:#003d6a;fill-opacity:1;fill-rule:nonzero;stroke:none"
             id="path3607"
             inkscape:connector-curvature="0" /></g><g
           id="g3609"
           transform="translate(132.3877,15.6573)"><path
             d="m 0,0 c 0.418,-1.148 1.482,-3.571 4.907,-3.571 2.485,0 4.239,1.379 4.239,3.362 0,2.004 -2.109,2.965 -4.448,3.778 -2.024,0.711 -4.635,1.629 -4.635,4.198 0,2.213 1.734,3.571 4.573,3.571 2.86,0 4.03,-1.525 4.907,-2.694 L 8.833,7.663 C 8.415,8.456 7.309,10.46 4.74,10.46 2.527,10.46 1.129,9.396 1.129,7.726 c 0,-1.295 0.96,-2.068 4.029,-3.154 2.902,-1.044 5.074,-2.109 5.074,-4.655 0,-2.652 -2.193,-4.447 -5.387,-4.447 -3.613,0 -5.325,2.775 -5.7,3.862 L 0,0 Z"
             style="fill:#003d6a;fill-opacity:1;fill-rule:nonzero;stroke:none"
             id="path3611"
             inkscape:connector-curvature="0" /></g><g
           id="g3613"
           transform="translate(145.626,26.6612)"><path
             d="m 0,0 1.002,0 0,-6.829 9.187,0 0,6.829 1.003,0 0,-15.056 -1.003,0 0,7.288 -9.187,0 0,-7.288 -1.002,0 L 0,0 Z"
             style="fill:#003d6a;fill-opacity:1;fill-rule:nonzero;stroke:none"
             id="path3615"
             inkscape:connector-curvature="0" /></g><g
           id="g3617"
           transform="translate(159.5108,11.8985)"><path
             d="m 0,0 0.668,-0.605 1.65,1.879 c 0.751,-0.752 2.088,-2.067 4.552,-2.067 3.884,0 6.682,3.277 6.682,7.851 0,2.526 -0.71,4.071 -1.462,5.282 l 1.838,2.025 -0.648,0.585 -1.712,-1.942 c -1.691,1.879 -3.592,2.109 -4.677,2.109 -3.822,0 -6.598,-3.341 -6.598,-7.913 0,-2.652 0.897,-4.239 1.462,-5.241 L 0,0 Z m 11.4,11.547 c 0.794,-1.336 1.128,-2.902 1.128,-4.469 0,-4.029 -2.296,-6.931 -5.47,-6.931 -2.38,0 -3.57,1.273 -4.093,1.836 L 11.4,11.547 Z M 2.465,2.757 C 2.047,3.529 1.357,4.822 1.357,7.392 c 0,2.735 1.358,6.806 5.576,6.806 1.837,0 3.048,-0.814 3.988,-1.92 L 2.465,2.757 Z"
             style="fill:#003d6a;fill-opacity:1;fill-rule:nonzero;stroke:none"
             id="path3619"
             inkscape:connector-curvature="0" /></g><g
           id="g3621"
           transform="translate(175.1709,26.6612)"><path
             d="m 0,0 1.065,0 4.26,-6.953 4.51,6.953 1.086,0 -5.138,-7.873 0,-7.183 -1.022,0 0,7.267 L 0,0 Z"
             style="fill:#003d6a;fill-opacity:1;fill-rule:nonzero;stroke:none"
             id="path3623"
             inkscape:connector-curvature="0" /></g><g
           id="g3625"
           transform="translate(188.1846,15.6573)"><path
             d="m 0,0 c 0.417,-1.148 1.481,-3.571 4.905,-3.571 2.486,0 4.24,1.379 4.24,3.362 0,2.004 -2.109,2.965 -4.448,3.778 -2.025,0.711 -4.636,1.629 -4.636,4.198 0,2.213 1.734,3.571 4.574,3.571 2.86,0 4.029,-1.525 4.906,-2.694 L 8.831,7.663 C 8.414,8.456 7.307,10.46 4.739,10.46 2.525,10.46 1.126,9.396 1.126,7.726 c 0,-1.295 0.961,-2.068 4.03,-3.154 2.903,-1.044 5.074,-2.109 5.074,-4.655 0,-2.652 -2.192,-4.447 -5.386,-4.447 -3.614,0 -5.324,2.775 -5.701,3.862 L 0,0 Z"
             style="fill:#003d6a;fill-opacity:1;fill-rule:nonzero;stroke:none"
             id="path3627"
             inkscape:connector-curvature="0" /></g><g
           id="g3629"
           transform="translate(202.1104,26.6612)"><path
             d="m 0,0 1.003,0 0,-8.123 8.602,8.123 1.378,0 -5.554,-5.241 6.076,-9.815 -1.065,0 -5.721,9.146 -3.716,-3.507 0,-5.639 -1.003,0 L 0,0 Z"
             style="fill:#003d6a;fill-opacity:1;fill-rule:nonzero;stroke:none"
             id="path3631"
             inkscape:connector-curvature="0" /></g><g
           id="g3633"
           transform="translate(221.2197,11.1055)"><path
             d="m 0,0 c 3.842,0 6.64,3.298 6.64,7.851 0,4.76 -2.736,8.08 -6.64,8.08 -3.904,0 -6.64,-3.298 -6.64,-7.955 C -6.64,3.34 -3.862,0 0,0 m -0.083,0.918 c -3.216,0 -5.491,2.924 -5.491,7.079 0,4.175 2.191,6.994 5.491,6.994 3.466,0 5.679,-2.819 5.679,-7.203 0,-1.713 -0.793,-6.87 -5.679,-6.87"
             style="fill:#003d6a;fill-opacity:1;fill-rule:nonzero;stroke:none"
             id="path3635"
             inkscape:connector-curvature="0" /></g><g
           id="g3637"
           transform="translate(230.9707,26.6612)"><path
             d="m 0,0 1.024,0 0,-14.156 7.057,0 0,-0.9 -8.081,0 L 0,0 Z"
             style="fill:#003d6a;fill-opacity:1;fill-rule:nonzero;stroke:none"
             id="path3639"
             inkscape:connector-curvature="0" /></g><g
           id="g3641"
           transform="translate(241.4112,26.6612)"><path
             d="m 0,0 8.916,0 -0.44,-0.941 -7.474,0 0,-5.909 6.598,0 0,-0.939 -6.598,0 0,-6.326 7.683,0 0.355,-0.941 -9.04,0 L 0,0 Z"
             style="fill:#003d6a;fill-opacity:1;fill-rule:nonzero;stroke:none"
             id="path3643"
             inkscape:connector-curvature="0" /></g><g
           id="g3645"
           transform="translate(253.5205,26.6612)"><path
             d="m 0,0 1.42,0 8.771,-13.698 0,13.698 1.022,0 0,-15.056 -1.274,0 -8.936,13.928 0,-13.928 -1.003,0 L 0,0 Z"
             style="fill:#003d6a;fill-opacity:1;fill-rule:nonzero;stroke:none"
             id="path3647"
             inkscape:connector-curvature="0" /></g></g></g></g></svg>